<svg width="110" height="110" viewBox="0 0 110 110" fill="none" xmlns="http://www.w3.org/2000/svg">
<circle cx="55" cy="55" r="55" fill="#00A884"/>
<path d="M74.6032 34.3705C69.2652 29.0197 62.1563 26.0768 54.6015 26.0768C39.0078 26.0768 26.3188 38.7658 26.3188 54.3595C26.3188 59.3408 27.6183 64.2074 30.0899 68.5008L26.0768 83.1517L41.0717 79.2151C45.1994 81.4701 49.8495 82.6549 54.5888 82.6549H54.6015C70.1825 82.6549 83.1517 69.9659 83.1517 54.3722C83.1517 46.8174 79.9413 39.7213 74.6032 34.3705ZM54.6015 77.8901C50.3719 77.8901 46.2314 76.7563 42.626 74.616L41.7724 74.1064L32.8799 76.4378L35.2495 67.7619L34.689 66.8701C32.3321 63.1245 31.0963 58.8057 31.0963 54.3595C31.0963 41.4029 41.645 30.8543 54.6143 30.8543C60.8951 30.8543 66.7936 33.3003 71.2271 37.7466C75.6606 42.1928 78.387 48.0914 78.3743 54.3722C78.3743 67.3415 67.558 77.8901 54.6015 77.8901ZM67.4943 60.2835C66.7936 59.9268 63.3156 58.2197 62.6659 57.9903C62.0162 57.7483 61.5448 57.6336 61.0734 58.3471C60.602 59.0605 59.2516 60.6403 58.8312 61.1244C58.4235 61.5957 58.0031 61.6594 57.3024 61.3027C53.1492 59.2261 50.4228 57.5954 47.6837 52.8944C46.9576 51.6459 48.4099 51.735 49.7603 49.0342C49.9897 48.5628 49.875 48.1551 49.6966 47.7984C49.5183 47.4417 48.1041 43.9637 47.5181 42.5495C46.9448 41.1736 46.3588 41.3647 45.9256 41.3392C45.5179 41.3138 45.0466 41.3138 44.5752 41.3138C44.1038 41.3138 43.3394 41.4921 42.6897 42.1928C42.0399 42.9062 40.2181 44.6134 40.2181 48.0914C40.2181 51.5694 42.7534 54.9328 43.0973 55.4041C43.4541 55.8755 48.0787 63.0099 55.1748 66.0802C59.6593 68.0167 61.4174 68.1823 63.6596 67.8511C65.0228 67.6472 67.8383 66.1439 68.4244 64.4877C69.0104 62.8315 69.0104 61.4174 68.832 61.1244C68.6664 60.8059 68.195 60.6275 67.4943 60.2835Z" fill="white"/>
</svg>
